<?xml version="1.0" encoding="UTF-8"?>
<svg id="a" data-name="10" xmlns="http://www.w3.org/2000/svg" viewBox="0 0 503.44 512">
  <defs>
    <style>
      .b {
        fill: #fff;
        stroke-width: 0px;
      }
    </style>
  </defs>
  <path class="b" d="m358.74,0h-214.05C64.78,0,0,64.78,0,144.7v222.61c0,79.91,64.78,144.7,144.69,144.7h214.05c79.91,0,144.7-64.78,144.7-144.7v-222.61c0-79.91-64.78-144.69-144.69-144.69ZM51.37,144.7c0-51.46,41.86-93.32,93.32-93.32h214.05c51.46,0,93.32,41.86,93.32,93.32v222.61c0,51.46-41.86,93.32-93.32,93.32h-214.05c-51.46,0-93.32-41.86-93.32-93.32v-222.61Z"/>
  <path class="b" d="m251.72,387.85c72.7,0,131.85-59.15,131.85-131.85s-59.15-131.86-131.85-131.86-131.85,59.15-131.85,131.86,59.15,131.85,131.85,131.85Zm0-222.61c50.04,0,90.75,40.71,90.75,90.76s-40.71,90.76-90.75,90.76-90.75-40.71-90.75-90.76,40.71-90.76,90.75-90.76Z"/>
  <circle class="b" cx="387.43" cy="120.3" r="29.54"/>
</svg>